<?xml version="1.0" encoding="UTF-8"?> <svg xmlns="http://www.w3.org/2000/svg" width="107" height="96" viewBox="0 0 107 96" fill="none"><path d="M11.8889 3.96875C6.96615 3.96875 2.97222 7.95801 2.97222 12.875V66.3125C2.97222 71.2295 6.96615 75.2188 11.8889 75.2188H43.0601H43.1158H63.8842H63.9399H95.1111C100.034 75.2188 104.028 71.2295 104.028 66.3125V12.875C104.028 7.95801 100.034 3.96875 95.1111 3.96875H11.8889ZM41.351 78.1875H11.8889C5.33142 78.1875 0 72.8623 0 66.3125V12.875C0 6.3252 5.33142 1 11.8889 1H95.1111C101.669 1 107 6.3252 107 12.875V66.3125C107 72.8623 101.669 78.1875 95.1111 78.1875H65.649L68.1196 93.0312H81.7361C82.5535 93.0312 83.2222 93.6992 83.2222 94.5156C83.2222 95.332 82.5535 96 81.7361 96H66.875H40.125H25.2639C24.4465 96 23.7778 95.332 23.7778 94.5156C23.7778 93.6992 24.4465 93.0312 25.2639 93.0312H38.8618L41.3325 78.1875H41.351ZM44.3604 78.1875L41.8898 93.0312H65.1288L62.6582 78.1875H44.3604ZM92.1389 15.8438H14.8611V63.3438H92.1389V15.8438ZM14.8611 12.875H92.1389C93.7736 12.875 95.1111 14.2109 95.1111 15.8438V63.3438C95.1111 64.9766 93.7736 66.3125 92.1389 66.3125H14.8611C13.2264 66.3125 11.8889 64.9766 11.8889 63.3438V15.8438C11.8889 14.2109 13.2264 12.875 14.8611 12.875ZM45.6422 27.292L33.3075 39.5938L45.6236 51.8955C46.1995 52.4707 46.1995 53.417 45.6236 53.9922C45.0477 54.5674 44.1003 54.5674 43.5245 53.9922L30.1495 40.6328C29.5736 40.0576 29.5736 39.1113 30.1495 38.5361L43.5245 25.1768C44.1003 24.6016 45.0477 24.6016 45.6236 25.1768C46.1995 25.752 46.1995 26.6982 45.6236 27.2734L45.6422 27.292ZM63.4755 25.1953L76.8505 38.5547C77.4264 39.1299 77.4264 40.0762 76.8505 40.6514L63.4755 54.0107C62.8997 54.5859 61.9523 54.5859 61.3764 54.0107C60.8005 53.4356 60.8005 52.4893 61.3764 51.9141L73.6925 39.5938L61.3764 27.292C60.8005 26.7168 60.8005 25.7705 61.3764 25.1953C61.9523 24.6201 62.8997 24.6201 63.4755 25.1953Z" fill="#6BC8F0"></path></svg> 