<?xml version="1.0" encoding="UTF-8"?> <svg xmlns="http://www.w3.org/2000/svg" width="96" height="96" viewBox="0 0 96 96" fill="none"><path d="M90.2188 48.5C90.2188 43.0214 89.1397 37.5965 87.0431 32.5349C84.9465 27.4734 81.8736 22.8743 77.9996 19.0004C74.1257 15.1264 69.5266 12.0535 64.4651 9.9569C59.4035 7.86034 53.9786 6.78125 48.5 6.78125C43.0214 6.78125 37.5965 7.86034 32.5349 9.9569C27.4734 12.0535 22.8743 15.1264 19.0004 19.0004C15.1264 22.8743 12.0535 27.4734 9.9569 32.5349C7.86034 37.5965 6.78125 43.0214 6.78125 48.5C6.78125 53.9786 7.86034 59.4035 9.9569 64.4651C12.0535 69.5266 15.1264 74.1257 19.0004 77.9996C22.8743 81.8736 27.4734 84.9465 32.5349 87.0431C37.5965 89.1397 43.0214 90.2188 48.5 90.2188C53.9786 90.2188 59.4035 89.1397 64.4651 87.0431C69.5266 84.9465 74.1257 81.8736 77.9996 77.9996C81.8736 74.1257 84.9465 69.5266 87.0431 64.4651C89.1397 59.4035 90.2188 53.9786 90.2188 48.5ZM4 48.5C4 36.6979 8.68838 25.3791 17.0337 17.0337C25.3791 8.68838 36.6979 4 48.5 4C60.3021 4 71.6209 8.68838 79.9663 17.0337C88.3116 25.3791 93 36.6979 93 48.5C93 60.3021 88.3116 71.6209 79.9663 79.9663C71.6209 88.3116 60.3021 93 48.5 93C36.6979 93 25.3791 88.3116 17.0337 79.9663C8.68838 71.6209 4 60.3021 4 48.5ZM30.1785 60.216C33.7941 65.3961 39.9129 70.75 48.5 70.75C57.0871 70.75 63.2059 65.3961 66.8215 60.216C67.2561 59.5902 68.1252 59.4338 68.751 59.8684C69.3768 60.3029 69.5332 61.1721 69.0986 61.7979C65.2049 67.3777 58.3561 73.5312 48.5 73.5312C38.6439 73.5312 31.7951 67.3777 27.884 61.8152C27.4494 61.1895 27.5885 60.3203 28.2316 59.8857C28.8748 59.4512 29.7266 59.5902 30.1611 60.2334L30.1785 60.216ZM31.882 40.1562C31.882 39.4186 32.1751 38.7112 32.6966 38.1896C33.2182 37.668 33.9256 37.375 34.6633 37.375C35.4009 37.375 36.1083 37.668 36.6299 38.1896C37.1515 38.7112 37.4445 39.4186 37.4445 40.1562C37.4445 40.8939 37.1515 41.6013 36.6299 42.1229C36.1083 42.6445 35.4009 42.9375 34.6633 42.9375C33.9256 42.9375 33.2182 42.6445 32.6966 42.1229C32.1751 41.6013 31.882 40.8939 31.882 40.1562ZM62.4758 37.375C63.2134 37.375 63.9208 37.668 64.4424 38.1896C64.964 38.7112 65.257 39.4186 65.257 40.1562C65.257 40.8939 64.964 41.6013 64.4424 42.1229C63.9208 42.6445 63.2134 42.9375 62.4758 42.9375C61.7381 42.9375 61.0307 42.6445 60.5091 42.1229C59.9876 41.6013 59.6945 40.8939 59.6945 40.1562C59.6945 39.4186 59.9876 38.7112 60.5091 38.1896C61.0307 37.668 61.7381 37.375 62.4758 37.375Z" fill="#6BC8F0" stroke="#6BC8F0"></path></svg> 