<?xml version="1.0" encoding="UTF-8"?> <svg xmlns="http://www.w3.org/2000/svg" width="149" height="96" viewBox="0 0 149 96" fill="none"><path d="M39.1125 7.59375C36.0161 7.59375 33.525 10.0807 33.525 13.1719V35.6703C33.525 39.668 30.2656 42.9219 26.2612 42.9219C23.3045 42.9219 20.9531 41.109 19.4631 39.1102C17.6937 36.7627 15.4122 35.4844 13.0375 35.4844C10.6628 35.4844 8.38125 36.7627 6.63516 39.0869C4.88906 41.4111 3.725 44.758 3.725 48.5C3.725 52.242 4.86578 55.5656 6.63516 57.9131C8.40453 60.2605 10.6628 61.5156 13.0375 61.5156C15.4122 61.5156 17.6937 60.2373 19.4631 57.8898C20.9531 55.9143 23.3045 54.0781 26.2612 54.0781C30.2656 54.0781 33.525 57.332 33.525 61.3297V83.8281C33.525 86.9193 36.0161 89.4062 39.1125 89.4062H63.6742C64.5123 89.4062 65.1875 88.7322 65.1875 87.8723C65.1875 87.3377 64.8616 86.7334 64.2097 86.2686C60.3217 83.5957 57.7375 79.3656 57.7375 74.5312C57.7375 66.0943 65.4902 59.6562 74.5 59.6562C83.5098 59.6562 91.2625 66.0943 91.2625 74.5312C91.2625 79.3656 88.6783 83.5957 84.7903 86.2686C84.1152 86.7334 83.8125 87.3377 83.8125 87.8723C83.8125 88.709 84.4877 89.4062 85.3491 89.4062H109.887C112.984 89.4062 115.475 86.9193 115.475 83.8281V61.3297C115.475 57.332 118.734 54.0781 122.739 54.0781C125.695 54.0781 128.047 55.891 129.537 57.8898C131.306 60.2373 133.588 61.5156 135.962 61.5156C138.337 61.5156 140.619 60.2373 142.365 57.9131C144.111 55.5889 145.275 52.2652 145.275 48.5C145.275 44.7348 144.134 41.4344 142.365 39.0869C140.595 36.7395 138.337 35.4844 135.962 35.4844C133.588 35.4844 131.306 36.7627 129.537 39.1102C128.047 41.0857 125.695 42.9219 122.739 42.9219C118.734 42.9219 115.475 39.668 115.475 35.6703V13.1719C115.475 10.0807 112.984 7.59375 109.887 7.59375H85.3491C84.5109 7.59375 83.8125 8.26777 83.8125 9.10449C83.8125 9.63906 84.1384 10.2434 84.7903 10.7082C88.6783 13.4043 91.2625 17.6344 91.2625 22.4688C91.2625 30.9057 83.5098 37.3438 74.5 37.3438C65.4902 37.3438 57.7375 30.9057 57.7375 22.4688C57.7375 17.6344 60.3217 13.4043 64.2097 10.7314C64.8848 10.2666 65.1875 9.6623 65.1875 9.12773C65.1875 8.29102 64.5123 7.61699 63.6742 7.61699H39.1125V7.59375ZM29.8 13.1719C29.8 8.03535 33.9673 3.875 39.1125 3.875H63.6742C66.5611 3.875 68.9125 6.22246 68.9125 9.10449C68.9125 11.1266 67.7484 12.7768 66.3283 13.7762C63.3017 15.868 61.4625 19.0057 61.4625 22.4688C61.4625 28.3955 67.05 33.625 74.5 33.625C81.95 33.625 87.5375 28.3955 87.5375 22.4688C87.5375 19.0289 85.6983 15.868 82.6717 13.7762C81.2516 12.8 80.0875 11.1266 80.0875 9.10449C80.0875 6.22246 82.4389 3.875 85.3491 3.875H109.887C115.033 3.875 119.2 8.03535 119.2 13.1719V35.6703C119.2 37.6227 120.783 39.2031 122.739 39.2031C124.089 39.2031 125.463 38.3432 126.557 36.8789C128.838 33.8109 132.144 31.7656 135.962 31.7656C139.757 31.7656 143.063 33.8109 145.345 36.8557C147.626 39.9004 149 44.0375 149 48.5C149 52.9625 147.65 57.0996 145.345 60.1443C143.04 63.1891 139.757 65.2344 135.962 65.2344C132.144 65.2344 128.838 63.1658 126.557 60.1211C125.463 58.6568 124.089 57.7969 122.739 57.7969C120.783 57.7969 119.2 59.3773 119.2 61.3297V83.8281C119.2 88.9646 115.033 93.125 109.887 93.125H85.3491C82.4389 93.125 80.0875 90.7775 80.0875 87.8723C80.0875 85.8502 81.2516 84.2 82.6717 83.2006C85.6983 81.1088 87.5375 77.9479 87.5375 74.508C87.5375 68.5812 81.95 63.3518 74.5 63.3518C67.05 63.3518 61.4625 68.5812 61.4625 74.508C61.4625 77.9479 63.3017 81.1088 66.3283 83.2006C67.7717 84.2 68.9125 85.8502 68.9125 87.8723C68.9125 90.7775 66.5611 93.125 63.6742 93.125H39.1125C33.9673 93.125 29.8 88.9646 29.8 83.8281V61.3297C29.8 59.3773 28.2169 57.7969 26.2612 57.7969C24.9109 57.7969 23.5373 58.6568 22.4431 60.1211C20.1616 63.1891 16.8556 65.2344 13.0375 65.2344C9.24266 65.2344 5.93672 63.1891 3.65516 60.1443C1.37359 57.0996 0 52.9625 0 48.5C0 44.0375 1.35031 39.9004 3.65516 36.8557C5.96 33.8109 9.24266 31.7656 13.0375 31.7656C16.8556 31.7656 20.1616 33.8342 22.4431 36.8789C23.5373 38.3432 24.9109 39.2031 26.2612 39.2031C28.2169 39.2031 29.8 37.6227 29.8 35.6703V13.1719Z" fill="#6BC8F0"></path></svg> 