<?xml version="1.0" encoding="UTF-8"?> <svg xmlns="http://www.w3.org/2000/svg" width="232" height="67" viewBox="0 0 232 67" fill="none"><g clip-path="url(#clip0_529_382)"><path d="M9.03638 21.7547C9.51487 23.6568 9.57008 25.4851 9.31244 27.258C9.03638 29.0308 8.77874 30.1758 10.9319 30.933C13.0299 31.6532 16.637 31.6532 19.0663 31.5609C19.4528 31.1177 19.8392 30.6375 20.2073 30.1389C20.741 29.3817 21.5139 28.1813 22.3973 26.7778C23.6672 24.7833 25.213 22.3641 26.7773 20.1295C25.2314 20.3881 22.7286 20.6835 21.5508 20.1111C20.3177 19.5201 19.3975 17.8211 19.3791 16.4914C18.2197 17.6918 17.1523 19.003 16.1953 20.4065L15.9929 20.702C15.4592 21.6069 14.9623 21.016 14.8519 20.0926C14.0421 14.1276 16.3978 13.3889 19.9496 12.2624L20.2625 12.17C20.557 10.8958 21.1459 8.80896 18.6246 7.90405C14.9071 9.62153 11.5209 12.1885 8.74193 15.4388C8.64991 17.4148 8.66831 20.2403 9.03638 21.7547Z" fill="#E55948"></path><path d="M39.5865 9.47381C40.9299 9.0306 41.7397 8.91979 42.8255 8.93826C43.0463 8.93826 43.2672 8.95673 43.5064 8.95673C43.2672 8.79052 43.0647 8.60584 42.5495 8.43964C41.6293 8.14416 40.5435 8.05182 39.4025 8.05182C35.8506 8.05182 32.3907 8.73512 29.1701 9.9909C27.8451 11.9669 28.2131 14.1092 28.6916 14.8663C29.0413 15.4388 29.8695 15.4942 30.5688 15.3834C33.0533 12.7241 36.145 10.6373 39.5865 9.47381Z" fill="#E55948"></path><path d="M32.6487 7.40546C34.4154 6.98071 36.2189 6.74063 38.0777 6.6483C36.2741 6.09427 34.397 5.72492 32.483 5.55872C32.2438 6.05734 31.8573 6.7591 31.25 7.57167C31.7469 7.51627 32.2254 7.46087 32.6487 7.40546Z" fill="#E55948"></path><path d="M32.667 47.7015C31.7284 48.9942 30.8082 50.1946 29.9433 51.1549C29.8513 51.2473 29.7592 51.3396 29.6672 51.4319C29.3544 51.7644 29.0415 52.0968 28.7102 52.4107C28.655 53.2233 28.8023 54.3683 29.2624 56.0303C29.4464 56.6767 29.612 57.1015 29.7776 57.3969C33.2927 56.1781 36.5317 54.2759 39.3291 51.7644C36.4949 51.4319 34.673 47.0921 32.667 47.7015Z" fill="#E55948"></path><path d="M51.328 39.0771C49.1196 34.1833 45.6229 41.1824 43.4513 40.4253C41.3533 39.705 43.5801 35.0697 41.5373 34.8112C40.9484 35.4575 40.3779 36.1223 39.8258 36.861C39.2921 37.6182 38.5192 38.8186 37.6358 40.2221C37.0469 41.127 36.4212 42.1243 35.7402 43.1585C37.0285 42.8999 38.74 42.9184 40.1939 43.4355C42.6783 44.3404 39.3657 48.3293 41.0772 50.0284C42.071 48.9572 42.9912 47.8123 43.8194 46.5749L43.9482 46.3903C44.5187 45.5592 45.0524 46.0948 45.1628 46.8889C45.4757 49.2158 45.31 50.7301 44.7763 51.8012C45.5861 51.8566 46.5247 52.6323 46.2486 56.1965C50.095 53.371 53.3524 49.5297 55.6528 44.8944C55.9841 44.248 56.2601 43.4909 56.4994 42.6783C55.6344 41.6257 52.9659 42.7337 51.328 39.0771Z" fill="#E55948"></path><path d="M39.1091 57.4523C37.7105 60.0378 36.6247 59.927 36.1094 60.8873C39.0723 60.204 41.8881 59.022 44.5014 57.3969C41.0047 54.4052 39.8637 56.0488 39.1091 57.4523Z" fill="#E55948"></path><path d="M55.7271 40.1668C56.5552 39.3912 57.0889 38.3755 56.1504 37.0273C55.1382 38.4493 55.5798 39.6313 55.7271 40.1668Z" fill="#3F373D"></path><path d="M45.6602 33.7586C46.1939 33.6478 47.4453 33.5 48.2366 31.9487C46.6171 31.7271 45.9362 32.5028 45.6602 33.7586Z" fill="#3F373D"></path><path d="M59.7376 32.1519C58.6702 31.7456 58.3021 31.2654 57.7868 30.4529C56.7562 28.7169 54.8055 27.1287 52.1922 27.1103C51.2904 27.0549 50.7015 26.9441 49.8549 26.2238C49.5973 26.0022 49.082 26.0392 49.2844 26.5378C49.4684 27.0179 49.8365 27.4611 49.45 27.6274C46.3399 28.68 43.4321 30.656 40.7452 33.5554C39.9722 32.8906 38.4632 32.2442 35.5738 32.7428C32.4452 33.2784 29.4271 35.3283 26.8322 38.6524C26.5745 38.9664 26.5193 39.3911 26.6849 39.7605C26.8506 40.1483 27.2002 40.4253 27.6235 40.4807C29.059 40.6839 30.4024 40.8501 31.7827 40.8501C32.482 40.8501 33.1998 40.8131 33.9359 40.7023C34.6352 40.61 35.261 40.4992 35.8499 40.3514C33.7519 43.6387 31.0834 47.7384 28.8565 50.1946C28.102 51.081 26.9978 51.5797 25.8384 51.5797C24.3845 51.5797 23.041 50.7671 22.3233 49.4744C21.4767 47.96 21.0535 46.9259 20.9062 45.984C20.759 44.9868 20.0597 44.839 19.8572 44.8021C18.4954 44.6544 16.9127 47.0736 16.2318 48.8465C15.8821 49.7329 15.5508 49.9361 15.4404 49.973C15.3668 49.9915 15.2932 50.0099 15.1644 49.9545C14.7963 49.7883 14.4834 49.5852 14.1154 49.2712C12.1646 47.6092 9.66171 46.5565 7.41648 46.4642H7.36127C6.80917 46.4457 5.63135 46.3903 5.13445 47.2398C4.61916 48.1078 5.26328 49.142 5.48412 49.5113C10.9316 57.9694 20.1517 63.0295 30.1816 63.0295C30.292 63.0295 30.4024 63.0295 30.4944 63.0295C29.2798 66.2244 29.8135 66.6307 30.108 66.8523C30.2 66.9261 30.3656 67.0185 30.6049 67.0185C30.8073 67.0185 31.0834 66.9446 31.3778 66.7045C32.9973 65.3379 36.7516 62.4201 39.641 61.3859C43.9474 59.8531 47.7017 57.3969 50.9407 54.1097C51.5848 57.5631 52.1738 57.8032 52.4498 57.914C52.5602 57.9509 52.6706 57.9694 52.7811 57.9694C52.9835 57.9694 53.1675 57.8955 53.3332 57.7663C56.0201 55.624 57.6212 51.8567 57.6212 47.6646C57.6212 46.7227 57.5108 45.7994 57.3083 44.876C58.707 41.5888 59.2775 36.6949 58.7254 33.2415C58.7254 33.2415 58.7254 33.2415 58.7254 33.223C58.6702 32.7982 59.2407 32.8721 59.756 32.8167C60.2713 32.7428 60.0504 32.2812 59.7376 32.1519ZM35.8131 34.1648C37.6166 33.8509 39.0521 34.0356 39.7698 34.645C39.6042 34.8297 39.4569 35.0143 39.2913 35.2175C38.0215 35.2729 36.7332 35.3283 35.5002 35.4022C34.3776 35.4576 33.2918 35.513 32.2428 35.5684C33.3102 34.9035 34.5064 34.3864 35.8131 34.1648ZM31.3778 36.1409C32.7213 36.0855 34.0831 36.0116 35.5186 35.9377C36.6044 35.8823 37.727 35.8269 38.8312 35.7715C38.776 35.8454 38.7208 35.9192 38.6472 35.9931C38.4632 36.2517 38.2607 36.5471 38.0583 36.8796C35.2978 37.2858 32.4268 37.6183 29.8871 37.3782C30.3656 36.9534 30.8441 36.5287 31.3778 36.1409ZM33.7335 39.2619C31.8931 39.5204 30.1816 39.3542 28.3044 39.1141C28.6357 38.7078 29.0038 38.2831 29.4086 37.8768V37.8953C30.1264 37.9876 30.8809 38.0245 31.6539 38.0245C33.6046 38.0245 35.6658 37.7845 37.6718 37.5075C37.4878 37.7845 37.3037 38.0984 37.1013 38.4124C36.0707 38.8556 35.0585 39.0772 33.7335 39.2619ZM19.4892 46.4088C19.6916 47.4799 20.1517 48.6249 21.0351 50.1946C22.0104 51.9305 23.814 53.0201 25.7648 53.0386C25.3047 53.3895 24.8446 53.7034 24.3661 54.0174C21.5688 53.3525 19.5628 51.2473 18.385 47.7569C18.8082 47.0921 19.2131 46.6304 19.4892 46.4088ZM17.5568 49.382C17.704 49.0127 17.8513 48.6803 18.0169 48.3663C19.1947 51.5797 21.1087 53.6111 23.7404 54.4052C23.4091 54.6083 23.0778 54.7745 22.7466 54.9592C21.3663 54.5529 18.8266 53.3525 17.336 49.8807C17.428 49.7145 17.5016 49.5482 17.5568 49.382ZM15.9925 51.3211C16.379 51.1549 16.7102 50.8594 17.0231 50.4347C18.4218 53.4449 20.6118 54.7376 22.0841 55.2916C21.808 55.4209 21.532 55.5502 21.2559 55.6794C18.7714 54.8299 16.9863 53.408 15.8453 51.3765C15.8637 51.3581 15.9373 51.3396 15.9925 51.3211ZM13.1584 50.3793C13.6369 50.7856 14.0785 51.081 14.5754 51.2842C14.7963 51.3765 15.0171 51.4319 15.238 51.4319C16.3422 53.5003 18.0905 55.0146 20.4646 55.9565C20.3173 56.0119 20.1517 56.0857 20.0045 56.1411C19.9124 56.1781 19.8388 56.1965 19.7468 56.215C16.9127 55.4578 14.1154 53.0017 12.2014 49.6591C12.5327 49.8991 12.8455 50.1207 13.1584 50.3793ZM11.2812 49.105C13.0848 52.6508 15.8453 55.3655 18.753 56.4735C18.4586 56.5289 18.1641 56.5659 17.8697 56.5844C14.5018 55.7533 11.0236 51.949 9.01759 48.2001C9.77213 48.4033 10.5451 48.7172 11.2812 49.105ZM11.4653 54.3683C9.64331 52.7431 8.0238 50.8594 6.66194 48.7357C6.38589 48.2925 6.34908 48.0708 6.34908 47.9785C6.4411 47.9416 6.66194 47.8862 7.25085 47.9046H7.32447C7.63733 47.9231 7.98699 47.96 8.31826 48.0339C10.0114 51.3581 12.9559 54.9777 16.1397 56.529C14.4098 56.3073 12.7719 55.5686 11.4653 54.3683ZM31.3778 64.8393C31.5434 64.2484 31.8011 63.5466 32.0403 62.9556C32.9053 62.9002 33.7519 62.8079 34.5984 62.6602C33.4206 63.4173 32.2612 64.193 31.3778 64.8393ZM52.9099 56.1781C52.6706 55.4394 52.3578 54.0543 52.1553 52.7616C52.505 52.3553 52.8547 51.949 53.1859 51.5243C53.2964 52.226 53.4068 52.8724 53.5356 53.5926C53.6276 54.0728 53.7012 54.6083 53.8117 55.1808C53.5356 55.5317 53.2412 55.8826 52.9099 56.1781ZM54.2533 54.5529C54.1981 54.1836 54.1245 53.8327 54.0693 53.5003C53.9221 52.6138 53.7749 51.8197 53.646 50.9333C53.9221 50.564 54.1981 50.1761 54.4742 49.8068C54.5294 50.1207 54.5846 50.4347 54.6582 50.7302C54.8055 51.4504 54.9527 52.1891 55.0631 53.1125C54.8239 53.6111 54.5478 54.1097 54.2533 54.5529ZM55.4496 52.0783C55.3576 51.5612 55.2655 51.081 55.1735 50.6194C55.0815 50.1577 54.9895 49.6775 54.8975 49.1604C55.3207 48.5141 55.744 47.8308 56.1305 47.1475C56.1305 47.3137 56.1489 47.4984 56.1489 47.6646C56.1489 49.2158 55.9097 50.7302 55.4496 52.0783ZM56.5354 42.6783C56.2961 43.4909 56.0017 44.2481 55.6888 44.8944C53.3884 49.5298 50.131 53.371 46.2846 56.1965C45.6957 56.6213 45.1068 57.0276 44.4995 57.3969C41.9046 59.0221 39.0705 60.204 36.1075 60.8873C34.1751 61.3305 32.1692 61.5706 30.1448 61.5706C27.3475 61.5706 24.6053 61.1458 21.992 60.3517C23.8324 60.2594 25.6543 60.0193 27.4211 59.5946C28.2124 59.4837 29.243 59.3914 30.3288 59.2991C33.163 59.059 36.0891 58.8004 37.4326 57.9509C38.4079 57.3415 38.8128 56.3627 39.1073 55.661C39.2177 55.384 39.3833 54.9777 39.4753 54.9038L40.0827 54.7191C42.2543 54.0358 43.9842 53.4818 44.8124 51.8197C45.3461 50.7486 45.5117 49.2158 45.1988 46.9074C45.0884 46.1133 44.5363 45.5777 43.9842 46.4088L43.8554 46.5935C43.0272 47.8308 42.107 48.9758 41.1133 50.0469C40.5428 50.6563 39.9538 51.2473 39.3465 51.7828C36.5676 54.2944 33.3102 56.1965 29.7951 57.4154C26.9058 58.4126 23.8324 58.9482 20.6854 58.9482C19.5444 58.9482 18.4402 58.8559 17.5384 58.5604C17.0231 58.3942 16.8207 58.228 16.5814 58.0433C16.8023 58.0618 17.0231 58.0618 17.2623 58.0618C18.3666 58.0618 19.1579 57.9694 20.5014 57.5262C23.5931 56.492 26.3905 54.7191 28.7277 52.4292C29.059 52.1152 29.3718 51.7828 29.6847 51.4504C29.7767 51.3581 29.8687 51.2657 29.9608 51.1734C30.8257 50.2131 31.7643 49.0127 32.6845 47.72C33.7335 46.261 34.8009 44.6728 35.7947 43.1585C36.4572 42.1243 37.1013 41.1271 37.6902 40.2222C38.5736 38.8371 39.3465 37.6367 39.8802 36.8611C40.4323 36.1409 41.0028 35.4576 41.5918 34.8112C44.4259 31.7087 47.4993 29.6588 50.7751 28.7539C52.7443 28.2552 56.0937 29.0309 57.0507 32.2627C57.7868 34.8851 57.5292 39.2988 56.5354 42.6783ZM43.9106 48.9388C43.9474 51.9121 42.6408 52.3738 39.8066 53.2602C41.3157 51.986 42.6776 50.5455 43.9106 48.9388ZM37.8927 54.793C37.8558 54.9038 37.8006 54.9962 37.7638 55.107C37.5062 55.7164 37.2485 56.3627 36.6596 56.7321C36.0339 57.1199 34.7088 57.3785 33.2366 57.5631C34.8745 56.7875 36.4388 55.8641 37.8927 54.793Z" fill="#3F373D"></path><path d="M3.92072 29.9727C4.93291 28.5507 4.49123 27.3688 4.344 26.8333C3.51585 27.6274 2.98214 28.6431 3.92072 29.9727Z" fill="#3F373D"></path><path d="M11.834 35.0513C13.4351 35.2729 14.1344 34.4972 14.4105 33.2415C13.8768 33.3523 12.6253 33.5185 11.834 35.0513Z" fill="#3F373D"></path><path d="M54.6219 17.5072C49.1745 9.0306 39.9359 3.98897 29.9244 3.98897C29.814 3.98897 29.7036 3.98897 29.6116 3.98897C30.8262 0.794102 30.2925 0.387817 29.998 0.166207C29.906 0.0923374 29.7404 0 29.5012 0C29.2987 0 29.0227 0.0738699 28.7282 0.313947C27.1087 1.68054 23.3544 4.5984 20.465 5.63258C16.1586 7.16538 12.4043 9.62156 9.1653 12.9088C8.52118 9.45535 7.93227 9.21527 7.65622 9.10447C7.5458 9.06753 7.43537 9.04906 7.32495 9.04906C7.12252 9.04906 6.93848 9.12293 6.77285 9.2522C4.08594 11.3944 2.48484 15.1618 2.48484 19.3539C2.48484 20.2958 2.59526 21.2191 2.7977 22.1425C1.39903 25.4297 0.828524 30.3236 1.38063 33.777C1.38063 33.777 1.38063 33.777 1.38063 33.7955C1.43584 34.2202 0.865331 34.1464 0.350034 34.2018C-0.183667 34.2572 0.0371747 34.7373 0.350034 34.8666C1.41744 35.2729 1.78551 35.753 2.3008 36.5656C3.3314 38.3015 5.28217 39.8897 7.89546 39.9082C8.79723 39.9636 9.38614 40.0744 10.2327 40.7947C10.4904 41.0163 11.0057 40.9793 10.8032 40.4807C10.6192 40.0006 10.2511 39.5573 10.6376 39.3911C13.7478 38.3385 16.6555 36.3625 19.3424 33.4631C20.1154 34.1279 21.6245 34.7743 24.5138 34.2756C27.6424 33.7401 30.6606 31.6902 33.2555 28.366C33.5131 28.0521 33.5683 27.6273 33.4027 27.258C33.2371 26.8702 32.8874 26.5932 32.4641 26.5378C31.0286 26.3346 29.6852 26.1684 28.3049 26.1684C27.6056 26.1684 26.8879 26.2053 26.1517 26.3162C25.4524 26.4085 24.8267 26.5193 24.2378 26.667C26.3358 23.3798 29.0043 19.28 31.2311 16.8239C31.9856 15.9374 33.0898 15.4388 34.2493 15.4388C35.7031 15.4388 37.0466 16.2514 37.7643 17.5441C38.6109 19.0584 39.0342 20.0926 39.1814 21.0345C39.3286 22.0317 40.0279 22.1794 40.2304 22.2164C41.5922 22.3641 43.1749 19.9449 43.8559 18.172C44.2055 17.2856 44.5368 17.0824 44.6472 17.0455C44.7208 17.027 44.7944 17.0085 44.9233 17.0639C45.2913 17.2302 45.6042 17.4333 45.9723 17.7472C47.923 19.4093 50.4259 20.462 52.6711 20.5543H52.7263C53.2785 20.5728 54.4563 20.6282 54.9532 19.7787C55.4685 18.9107 54.8427 17.858 54.6219 17.5072ZM28.673 2.16069C28.5074 2.75165 28.2497 3.45342 28.0105 4.04438C27.1455 4.09978 26.2989 4.19212 25.4524 4.33986C26.6486 3.58269 27.7896 2.80706 28.673 2.16069ZM7.14092 10.8219C7.38016 11.5606 7.69302 12.9457 7.89546 14.2384C7.5458 14.6447 7.19613 15.051 6.86487 15.4757C6.75445 14.774 6.64403 14.1276 6.5152 13.4074C6.44159 12.9272 6.34957 12.4101 6.25755 11.8192C6.5336 11.4683 6.82806 11.1359 7.14092 10.8219ZM5.79746 12.4471C5.85267 12.8164 5.92629 13.1673 5.9815 13.4997C6.12873 14.3862 6.27596 15.1803 6.40478 16.0667C6.12873 16.4361 5.85267 16.8239 5.57662 17.1932C5.52141 16.8793 5.4662 16.5653 5.39259 16.2698C5.24536 15.5496 5.09813 14.8109 4.98771 13.8875C5.24536 13.3889 5.50301 12.9088 5.79746 12.4471ZM4.61964 14.9402C4.71166 15.4573 4.80368 15.9374 4.89569 16.3991C4.98771 16.8608 5.07973 17.341 5.17175 17.858C4.74847 18.5044 4.32519 19.1877 3.93871 19.871C3.93871 19.7048 3.92031 19.5201 3.92031 19.3539C3.90191 17.7842 4.15955 16.2883 4.61964 14.9402ZM24.2562 32.8352C22.4526 33.1491 21.0171 32.9644 20.2994 32.355C20.465 32.1703 20.6123 31.9857 20.7779 31.7825C22.0477 31.7271 23.336 31.6717 24.569 31.5979C25.6916 31.5424 26.7774 31.487 27.8264 31.4316C26.759 32.0965 25.5628 32.6136 24.2562 32.8352ZM28.6914 30.8592C27.3479 30.9146 25.9861 30.9884 24.5506 31.0623C23.4648 31.1177 22.3422 31.1731 21.238 31.2285C21.2932 31.1546 21.3484 31.0808 21.422 31.0069C21.6061 30.7483 21.8085 30.4529 22.0109 30.1205C24.7715 29.7142 27.6424 29.3818 30.1821 29.6218C29.7036 30.0466 29.2067 30.4713 28.6914 30.8592ZM26.3358 27.7381C28.1761 27.4796 29.8876 27.6458 31.7648 27.8859C31.4335 28.2922 31.0654 28.7169 30.6606 29.1232V29.1047C29.9428 29.0124 29.1883 28.9755 28.4153 28.9755C26.4646 28.9755 24.4034 29.2155 22.3974 29.4926C22.5814 29.2155 22.7655 28.9016 22.9679 28.5877C23.9985 28.1444 25.0107 27.9228 26.3358 27.7381ZM30.4029 15.5681C30.3109 15.6604 30.2189 15.7528 30.1269 15.8451C29.0779 17.0085 27.9369 18.5229 26.7958 20.148C25.2315 22.3826 23.6856 24.8018 22.4158 26.7963C21.5324 28.1814 20.7595 29.3818 20.2258 30.1574C19.8393 30.656 19.4713 31.1177 19.0848 31.5794C16.1034 35.0513 12.8276 37.3043 9.33093 38.2831C7.36176 38.7817 4.01233 38.0061 3.05535 34.7743C2.07996 31.5055 2.72408 25.4851 4.3804 22.124C5.59503 19.6863 7.06731 17.4518 8.76043 15.4942C11.5578 12.2255 14.9256 9.65849 18.6615 7.94101C22.1766 6.31588 25.9861 5.44791 29.9244 5.44791C30.7894 5.44791 31.636 5.48484 32.4641 5.57718C34.3781 5.72492 36.2552 6.09427 38.0588 6.64829C36.2184 6.74063 34.3965 6.98071 32.6297 7.40546C32.2249 7.46086 31.7464 7.51626 31.2311 7.57166C30.7526 7.62707 30.2557 7.664 29.722 7.70094C26.9063 7.94101 23.9801 8.19956 22.6367 9.04906C21.6613 9.65849 21.2564 10.6373 20.9619 11.339C20.8515 11.616 20.6859 12.0223 20.5939 12.0962L20.2994 12.1885L19.9865 12.2809C16.4347 13.4074 14.079 14.1461 14.8888 20.1111C15.0176 21.0345 15.4961 21.6254 16.0298 20.7205L16.2322 20.425C17.1892 19.003 18.2566 17.7103 19.416 16.5099C22.195 13.6659 25.526 11.4498 29.1699 10.0094C32.3721 8.73512 35.832 8.07029 39.4022 8.07029C40.5432 8.07029 41.6474 8.16262 42.5492 8.4581C43.0645 8.62431 43.267 8.79052 43.5062 8.97519C43.2854 8.95673 43.0645 8.95673 42.8253 8.95673C41.7211 8.95673 40.9297 9.04906 39.5863 9.49228C36.1448 10.6373 33.053 12.7426 30.5501 15.4203C30.5133 15.4573 30.4581 15.5127 30.4029 15.5681ZM26.8142 9.45535C25.1763 10.231 23.6304 11.1544 22.1582 12.2255C22.195 12.1147 22.2502 12.0223 22.287 11.9115C22.5446 11.3021 22.8023 10.6557 23.3912 10.2864C24.0353 9.8801 25.342 9.64002 26.8142 9.45535ZM16.1586 18.0612C16.1218 15.0879 17.4285 14.6262 20.2626 13.7398C18.7535 15.0141 17.3733 16.473 16.1586 18.0612ZM40.5616 20.5912C40.3592 19.5201 39.8991 18.3751 39.0158 16.8054C38.0404 15.0695 36.2368 13.9799 34.2861 13.9614C34.7461 13.6105 35.2062 13.2966 35.6847 12.9826C38.482 13.6475 40.488 15.7528 41.6659 19.2431C41.261 19.9079 40.8561 20.3696 40.5616 20.5912ZM42.494 17.6364C42.3468 18.0058 42.1996 18.3382 42.0339 18.6522C40.8561 15.4388 38.9421 13.4074 36.3104 12.6133C36.6417 12.4101 36.973 12.2439 37.3042 12.0593C38.6845 12.4655 41.2242 13.6659 42.7149 17.1378C42.6412 17.2856 42.5676 17.4518 42.494 17.6364ZM44.0767 15.6789C43.6902 15.8451 43.359 16.1406 43.0461 16.5653C41.6474 13.5551 39.4574 12.2624 37.9852 11.7084C38.2612 11.5791 38.5373 11.4498 38.8133 11.3206C41.2978 12.1701 43.0829 13.5921 44.2239 15.6235C44.1871 15.642 44.1319 15.6604 44.0767 15.6789ZM46.9108 16.6207C46.4324 16.2144 45.9907 15.919 45.4938 15.7158C45.2729 15.6235 45.0521 15.5681 44.8313 15.5681C43.727 13.4997 41.9787 11.9854 39.6047 11.0436C39.7519 10.9881 39.9175 10.9143 40.0648 10.8589C40.1568 10.8219 40.2304 10.8035 40.3224 10.785C43.1565 11.5422 45.9539 13.9983 47.8678 17.341C47.5366 17.1194 47.2053 16.8793 46.9108 16.6207ZM48.788 17.895C46.9845 14.3492 44.2239 11.6345 41.3162 10.5265C41.6106 10.4711 41.9051 10.4341 42.1996 10.4157C45.5674 11.2467 49.0456 15.051 51.0516 18.8184C50.2971 18.6152 49.5241 18.3013 48.788 17.895ZM52.8 19.0954H52.7263C52.4135 19.0769 52.0638 19.04 51.7326 18.9661C50.0394 15.642 47.0949 12.0223 43.9111 10.4711C45.641 10.6927 47.2789 11.4314 48.5856 12.6318L48.604 12.6133C50.4075 14.2569 52.027 16.1406 53.3889 18.2643C53.6649 18.7076 53.7017 18.9292 53.7017 19.0215C53.6281 19.0584 53.3889 19.1138 52.8 19.0954Z" fill="#3F373D"></path></g><path d="M118.836 46.8101C126.602 46.8101 132.898 40.5142 132.898 32.7478C132.898 24.9814 126.602 18.6855 118.836 18.6855C111.069 18.6855 104.773 24.9814 104.773 32.7478C104.773 40.5142 111.069 46.8101 118.836 46.8101Z" stroke="#3F373D" stroke-width="1.37098" stroke-miterlimit="10" stroke-linecap="round"></path><path d="M223.617 31.3964C227.867 31.3964 231.314 34.8435 231.314 39.0935C231.314 43.3435 227.867 46.7905 223.617 46.7905" stroke="#3F373D" stroke-width="1.37098" stroke-miterlimit="10" stroke-linecap="round"></path><path d="M222.09 18.6855C225.596 18.6855 228.455 21.5254 228.455 25.0507C228.455 28.5761 225.615 31.416 222.09 31.416" stroke="#3F373D" stroke-width="1.37098" stroke-miterlimit="10" stroke-linecap="round"></path><path d="M78.6855 18.6855V46.8101" stroke="#3F373D" stroke-width="1.37098" stroke-miterlimit="10" stroke-linecap="round"></path><path d="M210.555 18.6855V46.8101" stroke="#3F373D" stroke-width="1.37098" stroke-miterlimit="10" stroke-linecap="round"></path><path d="M141.262 18.6855V46.8101" stroke="#3F373D" stroke-width="1.37098" stroke-miterlimit="10" stroke-linecap="round"></path><path d="M150.562 18.6855V46.8101" stroke="#3F373D" stroke-width="1.37098" stroke-miterlimit="10" stroke-linecap="round"></path><path d="M167.543 46.8101H150.562" stroke="#3F373D" stroke-width="1.37098" stroke-miterlimit="10" stroke-linecap="round"></path><path d="M223.696 46.8101H210.555" stroke="#3F373D" stroke-width="1.37098" stroke-miterlimit="10" stroke-linecap="round"></path><path d="M222.09 18.6855H210.555" stroke="#3F373D" stroke-width="1.37098" stroke-miterlimit="10" stroke-linecap="round"></path><path d="M223.696 31.3964H210.555" stroke="#3F373D" stroke-width="1.37098" stroke-miterlimit="10" stroke-linecap="round"></path><path d="M203.111 46.8101L189.107 18.6855L175.104 46.8101" stroke="#3F373D" stroke-width="1.37098" stroke-miterlimit="10" stroke-linecap="round" stroke-linejoin="round"></path><path d="M99.6619 46.8101L85.6191 32.7478L99.6619 18.6855" stroke="#3F373D" stroke-width="1.37098" stroke-miterlimit="10" stroke-linecap="round" stroke-linejoin="round"></path><defs><clipPath id="clip0_529_382"><rect width="60.069" height="67" fill="white"></rect></clipPath></defs></svg> 